<?xml version="1.0" encoding="UTF-8"?>
<svg id="Ebene_1" data-name="Ebene 1" xmlns="http://www.w3.org/2000/svg" viewBox="0 0 1920 578.71">
  <defs>
    <style>
      .cls-1 {
        fill: #2d3174;
      }

      .cls-2 {
        fill: #2c3272;
      }
    </style>
  </defs>
  <g>
    <g>
      <g>
        <path class="cls-1" d="M381.81,99.85c70.09,34.26,118.37,106.24,118.37,189.51,0,4.92-.18,9.79-.51,14.62l56.42,97.73c14.57-34.54,22.62-72.5,22.62-112.35,0-147.58-110.49-269.35-253.26-287.12l56.35,97.61Z"/>
        <path class="cls-1" d="M407.15,464.23c-33.63,22.7-74.16,35.95-117.79,35.95s-84.16-13.25-117.79-35.95H58.82c52.85,69.56,136.44,114.49,230.53,114.49s177.69-44.93,230.53-114.49h-112.74Z"/>
        <path class="cls-1" d="M79.05,303.98c-.33-4.83-.51-9.7-.51-14.62,0-83.27,48.28-155.25,118.37-189.51L253.26,2.24C110.49,20.01,0,141.78,0,289.36c0,39.84,8.06,77.81,22.62,112.35l56.42-97.73Z"/>
      </g>
      <g>
        <g>
          <polygon class="cls-1" points="38.74 434.08 113.63 434.08 326.8 64.86 289.36 0 38.74 434.08"/>
          <polygon class="cls-1" points="381.66 159.88 344.22 95.03 148.47 434.08 223.35 434.08 381.66 159.88"/>
        </g>
        <polygon class="cls-1" points="539.97 434.08 502.53 369.22 76.18 369.22 38.74 434.08 539.97 434.08"/>
      </g>
      <polygon class="cls-1" points="485.11 339.06 344.22 95.03 344.22 95.03 306.77 159.88 410.22 339.06 485.11 339.06"/>
      <polygon class="cls-1" points="203.33 339.06 485.11 339.06 447.67 274.2 240.77 274.2 203.33 339.06"/>
    </g>
    <g>
      <g>
        <g>
          <polygon class="cls-1" points="1070.48 138.38 995.14 138.38 995.14 404.2 1070.74 404.2 1070.48 138.38"/>
          <path class="cls-1" d="M1393.28,138.38h0s-.01,0-.01,0v265.81h75.39v-98.84h103.92c46.11,0,83.49-37.38,83.49-83.49h0c0-46.11-37.38-83.49-83.49-83.49h-179.3ZM1564.4,246.99h-95.74s0-50.28,0-50.28h95.74c13.88,0,25.14,11.26,25.14,25.14h0c0,13.88-11.26,25.14-25.14,25.14Z"/>
          <path class="cls-1" d="M1108.79,138.38h0s-.01,0-.01,0v265.81h75.39v-98.84h103.92c46.11,0,83.49-37.38,83.49-83.49h0c0-46.11-37.38-83.49-83.49-83.49h-179.3ZM1279.91,246.99h-95.74s0-50.28,0-50.28h95.74c13.88,0,25.14,11.26,25.14,25.14h0c0,13.88-11.26,25.14-25.14,25.14Z"/>
          <g>
            <polygon class="cls-1" points="1797.43 138.38 1722.09 138.38 1619.9 404.2 1695.5 404.2 1797.43 138.38"/>
            <polygon class="cls-1" points="1920 404.2 1844.66 404.19 1742.47 138.38 1818.07 138.38 1920 404.2"/>
          </g>
        </g>
        <path class="cls-1" d="M692.61,138.38h0s-.01,0-.01,0v265.81h75.44v-98.84h103.87c46.11,0,83.49-37.38,83.49-83.49h0c0-46.11-37.38-83.49-83.49-83.49h-179.3ZM863.72,246.99h-95.69s0-50.28,0-50.28h95.69c13.88,0,25.14,11.26,25.14,25.14h0c0,13.88-11.26,25.14-25.14,25.14Z"/>
        <polygon class="cls-1" points="1813.68 404.2 1769.99 290.53 1726.4 404.2 1813.68 404.2"/>
        <polygon class="cls-1" points="1813.68 404.2 1769.99 290.53 1726.4 404.2 1813.68 404.2"/>
      </g>
      <path class="cls-1" d="M850.18,246.99h-79.12l107.01,148.11c4.22,5.84,10.99,9.3,18.2,9.3h67.65l-113.73-157.42Z"/>
    </g>
  </g>
  <text x="1350" y="530" font-family="Arial, sans-serif" font-weight="bold" font-size="120" fill="#2c3272" letter-spacing="5">DOM TOM</text>
</svg>